<?xml version="1.0" encoding="UTF-8"?>
<svg xmlns="http://www.w3.org/2000/svg" viewBox="0 0 600 330" width="600" height="330" font-family="sans-serif">
<defs><marker id="ar" markerUnits="userSpaceOnUse" viewBox="0 0 12 12" markerWidth="14" markerHeight="14" refX="10" refY="6" orient="auto"><path d="M0,0 L12,6 L0,12 z" fill="#546e7a"/></marker><marker id="arO" markerUnits="userSpaceOnUse" viewBox="0 0 12 12" markerWidth="14" markerHeight="14" refX="10" refY="6" orient="auto"><path d="M0,0 L12,6 L0,12 z" fill="#ef6c00"/></marker><marker id="arP" markerUnits="userSpaceOnUse" viewBox="0 0 12 12" markerWidth="14" markerHeight="14" refX="10" refY="6" orient="auto"><path d="M0,0 L12,6 L0,12 z" fill="#8e24aa"/></marker></defs>
<rect x="0" y="0" width="600" height="330" rx="14" fill="#ffffff"/>
<line x1="80" y1="285" x2="575" y2="285" stroke="#546e7a" stroke-width="2" marker-end="url(#ar)"/>
<line x1="80" y1="285" x2="80" y2="26" stroke="#546e7a" stroke-width="2" marker-end="url(#ar)"/>
<text x="575.0" y="309.0" font-size="14" fill="#37474f" text-anchor="end">ค่าจริง (เทียบเครื่องอ้างอิง) →</text>
<text x="28.0" y="157.5" font-size="14" fill="#37474f" text-anchor="middle" transform="rotate(-90 28 157.5)">ค่าที่บอร์ดอ่าน →</text>
<line x1="80.0" y1="285.0" x2="575.0" y2="30.0" stroke="#90a4ae" stroke-width="2.5" stroke-dasharray="8 6"/>
<line x1="80.0" y1="239.1" x2="485.9" y2="30.0" stroke="#ef6c00" stroke-width="4"/>
<line x1="80.0" y1="272.2" x2="575.0" y2="119.2" stroke="#8e24aa" stroke-width="4"/>
<line x1="87.4" y1="242.1" x2="87.4" y2="281" stroke="#e65100" stroke-width="3" marker-end="url(#arO)"/>
<text x="99.4" y="251.0" font-size="14" fill="#e65100" text-anchor="start" font-weight="700">tare</text>
<line x1="377.0" y1="129.0" x2="377.0" y2="92.1" stroke="#e65100" stroke-width="2" marker-end="url(#arO)"/>
<text x="369.0" y="114.0" font-size="16" fill="#e65100" text-anchor="end" font-weight="700">①</text>
<text x="555.2" y="113.4" font-size="16" fill="#6a1b9a" text-anchor="end" font-weight="700">②</text>
<circle cx="203.8" cy="234.0" r="9" fill="#8e24aa" stroke="#fff" stroke-width="2"/>
<text x="203.8" y="262.0" font-size="14" fill="#6a1b9a" text-anchor="middle" font-weight="700">จุดแห้ง</text>
<circle cx="500.8" cy="142.2" r="9" fill="#8e24aa" stroke="#fff" stroke-width="2"/>
<text x="500.8" y="170.2" font-size="14" fill="#6a1b9a" text-anchor="middle" font-weight="700">จุดเปียก</text>
<rect x="300" y="206" width="282" height="74" rx="8" fill="#ffffff" stroke="#cfd8dc"/>
<line x1="310" y1="224" x2="340" y2="224" stroke="#90a4ae" stroke-width="2.5" stroke-dasharray="8 6"/>
<text x="348.0" y="229.0" font-size="13" fill="#37474f" text-anchor="start">ตรงเป๊ะ (ในอุดมคติ)</text>
<line x1="310" y1="246" x2="340" y2="246" stroke="#ef6c00" stroke-width="4"/>
<text x="348.0" y="251.0" font-size="13" fill="#e65100" text-anchor="start" font-weight="700">① offset: สูงเท่ากันทุกจุด → ลบออก</text>
<line x1="310" y1="268" x2="340" y2="268" stroke="#8e24aa" stroke-width="4"/>
<text x="348.0" y="273.0" font-size="13" fill="#6a1b9a" text-anchor="start" font-weight="700">② gain: ชันผิด → สอบเทียบ 2 จุด</text>
</svg>
