<svg xmlns="http://www.w3.org/2000/svg" viewBox="0 0 1000 330" width="1000" height="330" font-family="sans-serif">
<rect width="1000" height="330" rx="18" fill="#fbfdf9"/>

<!-- knobs that exist -->
<rect x="12" y="12" width="650" height="306" rx="16" fill="#fff3e0" stroke="#ef6c00" stroke-width="3"/>
<text x="30" y="42" font-size="21" font-weight="700" fill="#e65100">ปุ่มปรับหน้าตาที่มีจริงบนเฟิร์มแวร์นี้</text>

<g font-family="monospace" font-size="15" font-weight="700" fill="#fff">
<rect x="28" y="58" width="92" height="26" rx="6" fill="#263238"/><text x="74" y="76" text-anchor="middle">color()</text>
<rect x="28" y="122" width="150" height="26" rx="6" fill="#263238"/><text x="103" y="140" text-anchor="middle">size() · pos()</text>
<rect x="28" y="186" width="150" height="26" rx="6" fill="#263238"/><text x="103" y="204" text-anchor="middle">show() · hide()</text>
<rect x="28" y="250" width="186" height="26" rx="6" fill="#263238"/><text x="121" y="268" text-anchor="middle">enable() · disable()</text>
<rect x="346" y="58" width="92" height="26" rx="6" fill="#263238"/><text x="392" y="76" text-anchor="middle">prop(…)</text>
<rect x="346" y="122" width="190" height="26" rx="6" fill="#263238"/><text x="441" y="140" text-anchor="middle">ticks() · digits()</text>
<rect x="346" y="186" width="136" height="26" rx="6" fill="#263238"/><text x="414" y="204" text-anchor="middle">Label value=</text>
<rect x="346" y="250" width="68" height="26" rx="6" fill="#263238"/><text x="380" y="268" text-anchor="middle">Panel</text>
</g>

<g font-size="14" fill="#37474f">
<text x="28" y="104">สีพื้น/สีตัวอักษร เปลี่ยนตามโซนค่า</text>
<text x="28" y="168">ขยาย ย่อ ย้ายที่ (เช่น ไฟเตือนเต้นตอนดินแห้ง)</text>
<text x="28" y="232">ป้ายเตือนโผล่เฉพาะตอนมีปัญหา</text>
<text x="28" y="296" font-size="13">ปิดปุ่ม: เทา + ไม่ส่งเหตุการณ์ (Emulator ยังไม่มี)</text>
<text x="346" y="104">เข็ม · สีเข็ม · ความสว่าง Led · จุดกราฟ · แท็บ …</text>
<text x="346" y="168">ขีดของสเกล · จำนวนหลักของ Spinbox</text>
<text x="346" y="232">ขนาดตัวอักษร (ไทยได้ Noto Thai เอง)</text>
<text x="346" y="296" font-size="13.5">color=พื้น · min=สีขอบ · max=มุมโค้ง · value=ขอบหนา</text>
</g>

<!-- small visuals -->
<circle cx="140" cy="71" r="9" fill="#30a46c"/><circle cx="164" cy="71" r="9" fill="#f5a623"/><circle cx="188" cy="71" r="9" fill="#e5484d"/>
<rect x="196" y="128" width="16" height="14" rx="3" fill="#ffcc80"/><text x="222" y="141" font-size="14" fill="#546e7a">→</text><rect x="240" y="122" width="28" height="26" rx="4" fill="#ef6c00"/>
<rect x="196" y="188" width="104" height="22" rx="5" fill="#e5484d"/><text x="248" y="204" text-anchor="middle" font-size="13" font-weight="700" fill="#fff">⚠ ดินแห้ง!</text>
<rect x="228" y="250" width="96" height="26" rx="6" fill="#9aa3af"/><text x="276" y="268" text-anchor="middle" font-size="13" font-weight="700" fill="#eceff1">เปิดปั๊ม</text>
<g fill="#263238" font-weight="700">
<text x="498" y="200" font-size="14">ก</text><text x="516" y="200" font-size="16">ก</text><text x="537" y="200" font-size="20">ก</text><text x="563" y="200" font-size="24">ก</text><text x="594" y="200" font-size="28">ก</text>
</g>
<g font-size="10" fill="#78909c" text-anchor="middle"><text x="502" y="213">14</text><text x="521" y="213">16</text><text x="543" y="213">20</text><text x="570" y="213">24</text><text x="603" y="213">28</text></g>
<rect x="430" y="246" width="112" height="34" rx="12" fill="#171b22" stroke="#30a46c" stroke-width="4"/>
<text x="486" y="268" text-anchor="middle" font-size="13" fill="#e8eaed">การ์ด</text>

<!-- knobs that do NOT exist -->
<rect x="674" y="12" width="314" height="306" rx="16" fill="#eceff1" stroke="#b0bec5" stroke-width="3" stroke-dasharray="9 6"/>
<text x="831" y="42" text-anchor="middle" font-size="21" font-weight="700" fill="#546e7a">ไม่มีในเฟิร์มแวร์นี้</text>
<g font-size="17" fill="#90a4ae" text-decoration="line-through">
<text x="696" y="82">เลือกแบบฟอนต์ (font family)</text>
<text x="696" y="116">ความโปร่งใส (opacity)</text>
<text x="696" y="150">ไล่เฉดสี (gradient)</text>
<text x="696" y="184">เงา (shadow)</text>
<text x="696" y="218">Canvas วาดอิสระ</text>
<text x="696" y="252">style() แบบครอบจักรวาล</text>
</g>
<rect x="688" y="266" width="286" height="40" rx="10" fill="#fff" stroke="#b0bec5"/>
<text x="831" y="291" text-anchor="middle" font-size="15" fill="#37474f">วาดเองได้ด้วย <tspan font-weight="700">Line · DotMatrix · Image</tspan></text>
</svg>
